<?xml version="1.0" encoding="utf-8"?>
<!-- Generator: Adobe Illustrator 18.0.0, SVG Export Plug-In . SVG Version: 6.00 Build 0)  -->
<!DOCTYPE svg PUBLIC "-//W3C//DTD SVG 1.1//EN" "http://www.w3.org/Graphics/SVG/1.1/DTD/svg11.dtd">
<svg version="1.1" id="Layer_1" xmlns="http://www.w3.org/2000/svg" xmlns:xlink="http://www.w3.org/1999/xlink" x="0px" y="0px"
	 viewBox="0 0 100 100" enable-background="new 0 0 100 100" xml:space="preserve">
<g>
	<path fill="#666766" d="M208.9-39.4c-2.5-1.1-4-2.2-5.5-3c-2.7-1.6-3.9-2.3-3.9-6.9c0-5.9,4.9-9.4,5.2-10.1c1.6-3.3,0.8-6,0.3-7.3
		c3.5-7.7-0.7-14.1-1.6-15.3c-2.3-6.5-7.1-7.9-10.8-7.9c-4.3,0-8.2,1.9-8.3,1.9c-4,1.6-6.7,4.2-8.1,7.7c-2.3,5.6-0.2,11.7,0.5,13.6
		c-1.8,4.4,0.3,7.4,0.4,7.5c0.4,0.4,5.1,4,5.1,9.9c0,5.7-3.1,6.9-7.6,8.2c-4.5,1.5-13.7,4.5-13.7,14.4v1.3h58.7v-1.4
		C219.4-34.7,213.4-37.4,208.9-39.4z M163.6-28c0.8-6.9,7.9-9.3,11.8-10.5c4.5-1.5,9.4-3.1,9.4-10.8c0-6.5-4.6-10.7-5.7-11.6
		c-0.3-0.5-1.1-2.4,0.2-5.2l0.3-0.6l-0.3-0.5c0-0.1-2.9-6.6-0.7-12.1c1.1-2.8,3.3-4.8,6.7-6.2c0,0,3.5-1.7,7.2-1.7
		c4.2,0,6.9,2,8.4,6.5c0.2,0.3,4.9,6.3,1.3,13.5l-0.3,0.7l0.4,0.6c0,0,1.3,2.2,0,5.1c-1.2,1-5.6,5.1-5.6,11.5c0,5.9,2,7.3,5.3,9.2
		c1.5,0.9,3.4,2,5.7,3.1c3.9,1.8,8.3,3.8,9,9H163.6z"/>
	<path fill="#666766" d="M235.6-30.6h-13.9c-0.3-1-0.6-1.9-1.1-2.7h12.1c-0.7-4.3-4.3-5.9-7.6-7.4c-2-0.9-3.6-1.9-4.9-2.7
		c-2.4-1.4-4.6-2.7-4.6-8.1c0-5.5,3.8-9.2,4.8-10.1c1-2.3,0-4.1-0.1-4.2l-0.4-0.6l0.3-0.7c3-6-0.8-11-1.1-11.4
		c-1.2-3.8-3.5-5.5-7-5.5c-3.1,0-6,1.5-6.1,1.5c0,0,0,0,0,0c-0.1-0.3-0.3-0.5-0.4-0.7c-0.2-0.6-0.5-1.2-0.8-1.7c0,0,0.1-0.1,0.1-0.1
		c0,0,3.4-1.7,7.2-1.7c3.2,0,7.4,1.2,9.4,6.9c0.8,1.1,4.4,6.6,1.5,13.3c0.4,1.1,1.1,3.5-0.3,6.3c-0.3,0.6-4.5,3.5-4.5,8.6
		c0,3.9,0.9,4.4,3.2,5.8c1.2,0.7,2.5,1.6,4.7,2.6c3.8,1.8,9.1,4.2,9.2,11.2L235.6-30.6z"/>
	<path fill="#666766" d="M145.6-32c0.1-7,5.4-9.4,9.2-11.2c2.2-0.9,3.5-1.9,4.7-2.6c2.3-1.3,3.2-1.9,3.2-5.8c0-5.1-4.2-8-4.5-8.6
		c-1.3-2.8-0.7-5.2-0.3-6.3c-2.9-6.7,0.6-12.1,1.5-13.3c2-5.7,6.2-6.9,9.4-6.9c3.8,0,7.1,1.7,7.2,1.7c0.1,0,0.1,0,0.1,0.1
		c-0.3,0.5-0.5,1.1-0.8,1.7c-0.1,0.2-0.3,0.4-0.4,0.7c0,0,0,0,0,0c0,0-2.9-1.5-6.1-1.5c-3.5,0-5.8,1.8-7,5.5
		c-0.3,0.4-4.1,5.4-1.1,11.4l0.3,0.7l-0.4,0.6c-0.1,0.1-1.1,1.9-0.1,4.2c1.1,0.9,4.8,4.6,4.8,10.1c0,5.4-2.1,6.7-4.6,8.1
		c-1.3,0.8-2.9,1.8-4.9,2.7c-3.2,1.5-6.9,3.1-7.6,7.4h12.1c-0.4,0.8-0.8,1.8-1.1,2.7h-13.9L145.6-32z"/>
</g>
<g>
	<path fill="#666766" d="M-83.8,194.2c0,24.9-20.1,45-45,45s-45-20.1-45-45c0-24.9,20.1-45,45-45S-83.8,169.3-83.8,194.2z
		 M-87,194.2c0-23.1-18.7-41.8-41.8-41.8s-41.8,18.7-41.8,41.8c0,23.1,18.7,41.8,41.8,41.8S-87,217.3-87,194.2z M-103.1,194.2
		c0,14.2-11.5,25.7-25.7,25.7s-25.7-11.5-25.7-25.7c0-14.2,11.5-25.7,25.7-25.7S-103.1,180-103.1,194.2z M-106.3,194.2
		c0-12.4-10.1-22.5-22.5-22.5s-22.5,10.1-22.5,22.5c0,12.4,10.1,22.5,22.5,22.5S-106.3,206.7-106.3,194.2z M-122.3,194.2
		c0,3.6-2.9,6.4-6.4,6.4s-6.4-2.9-6.4-6.4c0-3.6,2.9-6.4,6.4-6.4S-122.3,190.7-122.3,194.2z"/>
</g>
<g>
	<path fill="#666766" d="M267,168.5v51.4c0,1.8-1.5,3.2-3.2,3.2h-83.6c-1.8,0-3.2-1.4-3.2-3.2v-51.4c0-1.8,1.5-3.2,3.2-3.2h83.6
		C265.5,165.3,267,166.7,267,168.5z M180.2,218.9l24.7-24.7l-24.7-24.7V218.9z M183.7,168.5l36,36c0.7,0.6,1.5,1,2.3,1
		s1.7-0.4,2.3-1l36-36H183.7z M260.3,219.9l-23.5-23.5l-10.4,10.4c-1.2,1.2-2.9,1.8-4.5,1.8c-1.6,0-3.2-0.6-4.5-1.8l-10.3-10.4
		l-23.5,23.5H260.3z M263.8,169.5l-24.7,24.7l24.7,24.7V169.5z"/>
</g>
<g>
	<path fill-rule="evenodd" clip-rule="evenodd" fill="#666766" d="M-133.7-78.1c12.4-15.2,39.2-16.5,55.9-6.1c1.4-1,2.9-1.9,4.2-2.6
		c1.5-0.9,3.1,0.1,3.2,1.6l0.2,7.1c5.8,5.6,8.3,9.5,16.7,12.1c1.3-2.1,4.3-0.6,3.8,1.6l-3,14.8c-0.1,0.5-0.3,0.9-0.8,1.3
		c-9,7.2-14.8,10-26.9,12.1l-2.8,9.9l0,0c-0.8,3-9.1,2.2-11.9,1.4l0,0c-0.7-0.2-1.3-0.8-1.5-1.6l-1.8-8.9c-5.7,0.8-9.6,0.2-14.9-1.7
		l-2.1,10.5c-0.1,0.8-0.7,1.5-1.5,1.7c-2.8,0.8-11.2,1.5-12-1.5c-2.3-9.6-10.3-28.2-10.3-36.5c0-4.6,1.4-8.9,3.9-12.8
		c-6.1-5.4-5.6-14.7,1.5-15c6.8-0.3,6.7,7.9,3.5,7c-2.3-0.7,0.5-3-2.1-3.9C-137.1-89.2-138.6-82.7-133.7-78.1L-133.7-78.1z M-76-67
		c5.8,0,5.8,8.8,0,8.8C-81.8-58.2-81.8-67-76-67L-76-67z M-71-73c-0.3,1.3-1,2.7-2.7,2.3c-3.1-0.8-0.4-3.9-0.6-10.8
		c-5.9,3.9-5.9,7.6-8.5,6c-2.5-1.5,0.3-4.5,1.6-5.8c-7.2-4.1-15-5.3-22.8-5.3c-15.1,0-31,9.2-31,23.7c0,6.9,7.5,25.3,9.9,34.3l5.9,0
		c0.8-3.9,1.6-7.8,2.4-11.7c0.8-3.8,5.4,0.2,11.2,1c6.3,0.8,10.5-2.1,11,1.3l1.9,9.5l5.9,0l4.7-16.6c0.3-1.1,1.5-1.8,2.6-1.4
		c2.6,0.7,1.1,3.7,0.5,5.9c5-1,8.7-2.1,11.9-3.6c3.7-1.7,6.8-3.9,10.5-6.8l2.2-10.7C-63-64.4-65.8-67.7-71-73L-71-73z M-126.5-24.9
		c-0.3,0.1-0.6,0.1-0.9,0L-126.5-24.9L-126.5-24.9z"/>
	<path fill-rule="evenodd" clip-rule="evenodd" fill="#666766" d="M-96.9-77.9c-4.5-1.1-9.4-1.1-14,0.1c-2.7,0.7-3.7-3.4-1.1-4.1
		c5.2-1.4,10.8-1.4,16-0.1C-93.2-81.3-94.2-77.3-96.9-77.9L-96.9-77.9z"/>
</g>
<g>
	<path fill="#666766" d="M-295-68.8c0-3.1,2.5-5.6,5.6-5.6h78.8c3.1,0,5.6,2.5,5.6,5.6L-250-35L-295-68.8z M-205-58.7v46.1
		c0,3.1-2.5,5.6-5.6,5.6h-78.8c-3.1,0-5.6-2.5-5.6-5.6v-46.1l45,33.8L-205-58.7z"/>
</g>
<g>
	<path fill="#666766" d="M327.3-24.2c-1.1,0-1.9-0.8-1.9-1.9V-58h-31.9c-1.1,0-1.9-0.8-1.9-1.9v-18.7c0-1.1,0.8-1.9,1.9-1.9h31.9
		v-31.9c0-1.1,0.8-1.9,1.9-1.9H346c1.1,0,1.9,0.8,1.9,1.9v31.9h31.9c1.1,0,1.9,0.8,1.9,1.9v18.7c0,1.1-0.8,1.9-1.9,1.9h-31.9v31.9
		c0,1.1-0.8,1.9-1.9,1.9H327.3z"/>
</g>
<g>
	<path fill="#666766" d="M-165.7,61.2c0,11.2-8.8,19.9-19.7,22c-10.9,2.2-19.7-2.8-19.7-11.1c0-8.3,8.8-17.3,19.7-19.4
		c2.7-0.5,5.3-0.8,7.6-0.8h2.7V29.4l-41.3,9.4v33.7c0,11.2-8.8,19.9-19.7,22c-10.9,2.2-19.7-2.8-19.7-11.1c0-8.3,8.8-17.3,19.7-19.4
		c2.7-0.5,5.3-0.8,7.6-0.8h2.7V22.7c0-3.1,2.5-6.2,5.5-6.9l49-10.8c3-0.6,5.5,1.4,5.5,4.5V61.2z"/>
</g>
<g>
	<path fill="#666766" d="M-68.7,35c0,5.3-1.5,10.4-3.9,14.7l-24.5,44.4c-0.3,0.5-1.1,0.9-1.7,0.9c-0.7,0-1.4-0.4-1.7-0.9l-24.5-44.4
		c-2.5-4.3-3.9-9.4-3.9-14.7c0-16.6,13.4-30,30-30S-68.7,18.4-68.7,35z M-87.5,35c0-6.3-5-11.2-11.2-11.2S-110,28.7-110,35
		c0,6.2,5,11.2,11.2,11.2S-87.5,41.3-87.5,35z"/>
</g>
<g>
	<path fill="#666766" d="M46.6-45c-9.5,9.5-24.9,9.5-34.5,0c-9.5-9.6-9.5-25,0-34.5l12.8-12.8c-0.4,4.8,0.2,9.6,1.8,14.1l-6.6,6.6
		c-5.1,5.1-5.1,13.4,0,18.5s13.4,5.1,18.5,0L52.6-67c5.2-5.1,5.2-13.4,0-18.5c-2.2-2.2-2.2-5.8,0-8c2.2-2.2,5.8-2.2,8,0
		c9.4,9.6,9.4,25,0,34.5L46.6-45z M75.1-73.6c0.4-4.8-0.2-9.4-1.8-13.9l6.6-6.8c5.1-5.1,5.1-13.4,0-18.5s-13.4-5.1-18.5,0L47.3-98.9
		c-5.1,5.2-5.1,13.4,0,18.7c2.3,2.2,2.3,5.7,0,7.9c-2.2,2.2-5.7,2.2-7.9,0c-9.4-9.6-9.4-25,0-34.5l14-13.9c9.6-9.6,25-9.6,34.4,0
		c9.6,9.4,9.6,24.9,0,34.4L75.1-73.6z"/>
</g>
<g>
	<path fill="#666766" d="M395.7,194c0,3.1-2.5,5.6-5.6,5.6h-22.5v-35h11.2l1.9-13h-13.1v-10.2c0-3.7,1.9-5.8,5.6-5.8h8.4V124
		c0,0-3.8-0.6-9.2-0.6c-12.3,0-18.6,6.9-18.6,17.1v11.2h-11.3v13h11.3v35h-42.5c-3.1,0-5.6-2.5-5.6-5.6v-78.7c0-3.1,2.5-5.6,5.6-5.6
		H390c3.1,0,5.6,2.5,5.6,5.6V194z"/>
</g>
<g>
	<path fill="#666766" d="M23.3,244.6c0,24.8-20.1,45-45,45c-24.9,0-45-20.2-45-45c0-24.9,20.1-45,45-45
		C3.2,199.6,23.3,219.8,23.3,244.6z M20.1,244.6c0-23.1-18.7-41.8-41.8-41.8c-23.1,0-41.8,18.7-41.8,41.8c0,12.4,5.4,23.5,14,31.2
		c7-7.3,16.8-11.9,27.8-11.9c10.9,0,20.7,4.6,27.8,11.9C14.7,268.2,20.1,257,20.1,244.6z M-49,246.2h-6.4c-0.9,0-1.6-0.7-1.6-1.6
		s0.7-1.6,1.6-1.6h6.4c0.9,0,1.6,0.7,1.6,1.6S-48.1,246.2-49,246.2z M-43.9,231.8c-0.4,0.8-1.4,1.1-2.2,0.6l-5.5-3.2
		c-0.8-0.5-1.1-1.5-0.6-2.2c0.4-0.8,1.5-1.1,2.2-0.6l5.6,3.2C-43.8,230-43.5,231-43.9,231.8z M-43.9,257.5c0.4,0.8,0.2,1.8-0.6,2.2
		l-5.6,3.3c-0.7,0.4-1.8,0.2-2.2-0.6c-0.4-0.7-0.2-1.8,0.6-2.2l5.5-3.2C-45.4,256.5-44.4,256.7-43.9,257.5z M3.6,277.9
		c-6.4-6.6-15.3-10.7-25.3-10.7c-9.9,0-18.9,4.1-25.3,10.7c7,5.4,15.8,8.6,25.3,8.6C-12.2,286.4-3.4,283.2,3.6,277.9z M-33.9,220.2
		c0.4,0.8,0.2,1.8-0.6,2.2c-0.7,0.4-1.7,0.2-2.2-0.6l-3.2-5.6c-0.4-0.7-0.2-1.8,0.6-2.2c0.7-0.4,1.8-0.2,2.2,0.6L-33.9,220.2z
		 M-4.4,227.4c0.7,0.6,0.7,1.6,0,2.2l-11.7,11.7c0.5,1,0.9,2.1,0.9,3.3c0,3.6-2.9,6.4-6.4,6.4c-3.6,0-6.4-2.9-6.4-6.4
		s2.9-6.4,6.4-6.4c1.2,0,2.3,0.3,3.3,0.9l11.7-11.7C-6.1,226.8-5.1,226.8-4.4,227.4z M-18.5,244.6c0-1.8-1.5-3.2-3.2-3.2
		c-1.8,0-3.2,1.5-3.2,3.2s1.5,3.2,3.2,3.2C-19.9,247.9-18.5,246.4-18.5,244.6z M-23.3,217.3v-6.4c0-0.9,0.7-1.6,1.6-1.6
		s1.6,0.7,1.6,1.6v6.4c0,0.9-0.7,1.6-1.6,1.6S-23.3,218.2-23.3,217.3z M-3.4,216.2l-3.2,5.6c-0.5,0.7-1.5,1-2.2,0.6
		c-0.8-0.4-1.1-1.4-0.6-2.2l3.2-5.6c0.4-0.7,1.5-1,2.2-0.6C-3.2,214.5-2.9,215.5-3.4,216.2z M0.6,231.8c-0.4-0.7-0.2-1.8,0.6-2.2
		l5.6-3.2c0.7-0.4,1.8-0.2,2.2,0.6c0.4,0.7,0.2,1.7-0.6,2.2l-5.5,3.2C2,232.8,1.1,232.6,0.6,231.8z M9,262.3
		c-0.4,0.8-1.5,1.1-2.2,0.6l-5.6-3.3c-0.7-0.4-1-1.4-0.6-2.2c0.4-0.7,1.4-1,2.2-0.6l5.5,3.2C9.1,260.6,9.4,261.6,9,262.3z
		 M13.7,244.6c0,0.9-0.7,1.6-1.6,1.6H5.7c-0.9,0-1.6-0.7-1.6-1.6s0.7-1.6,1.6-1.6h6.4C13,243,13.7,243.8,13.7,244.6z"/>
</g>
<g>
	<path fill="#666766" d="M145,237.9v48.2c0,3.6-2.9,6.5-6.4,6.5H61.4c-3.6,0-6.4-2.9-6.4-6.5v-48.2c0-3.5,2.9-6.4,6.4-6.4h77.2
		C142.1,231.5,145,234.4,145,237.9z M141.8,237.9c0-1.8-1.5-3.2-3.2-3.2H61.4c-1.8,0-3.2,1.5-3.2,3.2v3.2h83.6V237.9z M141.8,254
		H58.2v32.1c0,1.8,1.5,3.3,3.2,3.3h77.2c1.8,0,3.2-1.5,3.2-3.3V254z M64.6,274.8c0-0.9,0.7-1.6,1.6-1.6h28.9c0.9,0,1.6,0.7,1.6,1.6
		c0,0.9-0.7,1.6-1.6,1.6H66.2C65.4,276.5,64.6,275.8,64.6,274.8z M64.6,281.3c0-0.9,0.7-1.6,1.6-1.6h16.1c0.9,0,1.6,0.7,1.6,1.6
		s-0.7,1.6-1.6,1.6H66.2C65.4,282.9,64.6,282.2,64.6,281.3z M135.4,282.9h-9.7v-9.6h9.7V282.9z"/>
</g>
<g>
	<path fill="#666766" d="M507.5,154.6v90h-64.2v-90H507.5z M504.3,157.9h-57.8v83.6h57.8V157.9z M497.9,198h-45v-33.8h45V198z
		 M452.9,209.3c0-2.6,2.2-4.8,4.8-4.8c2.6,0,4.8,2.2,4.8,4.8c0,2.7-2.2,4.8-4.8,4.8C455.1,214.1,452.9,212,452.9,209.3z
		 M494.7,167.5h-38.6v27.3h38.6V167.5z"/>
</g>
<path fill="#666766" d="M591.6,6.6v1.7h-70.7V6.7c0-12,11.2-15.6,16.5-17.4c5.5-1.6,9.2-3.1,9.2-9.9c0-7.1-5.7-11.4-6.2-11.9
	c-0.1-0.1-2.6-3.7-0.4-9c-0.9-2.2-3.3-9.6-0.6-16.3c1.7-4.2,5-7.3,9.8-9.2c0.1,0,4.7-2.3,10-2.3c4.4,0,10.2,1.7,13,9.5
	c1.1,1.5,6.2,9.1,2,18.5c0.6,1.5,1.6,4.8-0.4,8.7c-0.4,0.7-6.3,5-6.3,12.1c0,5.6,1.5,6.5,4.7,8.3c1.7,0.9,3.6,2.2,6.6,3.6
	C584.1-6.3,591.4-3,591.6,6.6z M588.3,5.1c-0.9-6.3-6.2-8.7-10.9-10.9c-2.8-1.3-5-2.7-6.8-3.7c-3.9-2.3-6.3-4-6.3-11.1
	c0-7.6,5.3-12.7,6.7-13.8c1.6-3.5,0-6.2,0-6.2l-0.5-0.7l0.4-0.8c4.3-8.7-1.4-15.9-1.6-16.2c-1.8-5.4-5.1-7.8-10.1-7.8
	c-4.4,0-8.6,2.1-8.7,2.1c-4.1,1.7-6.8,4.1-8.1,7.5c-2.7,6.6,0.8,14.5,0.8,14.5l0.3,0.7l-0.3,0.7c-1.6,3.3-0.6,5.6-0.2,6.2
	c1.3,1.1,6.8,6.1,6.8,13.9c0,9.3-6,11.2-11.4,13c-4.7,1.5-13.3,4.4-14.2,12.7H588.3z M610.9,1.9h-16.8c-0.3-1.2-0.7-2.3-1.3-3.3
	h14.6c-0.8-5.1-5.2-7.1-9.1-8.9c-2.4-1.1-4.3-2.3-5.9-3.3c-2.9-1.7-5.5-3.2-5.5-9.8c0-6.6,4.5-11,5.8-12.1c1.2-2.8,0-5-0.1-5.1
	l-0.4-0.7l0.4-0.8c3.6-7.2-1-13.2-1.4-13.7c-1.5-4.5-4.3-6.6-8.4-6.6c-3.8,0-7.3,1.8-7.3,1.8c0,0,0,0,0,0c-0.2-0.4-0.4-0.6-0.5-0.8
	c-0.3-0.7-0.6-1.4-0.9-2.1c0,0,0.1-0.1,0.2-0.1c0,0,4.1-2.1,8.6-2.1c3.9,0,8.9,1.5,11.3,8.3c1,1.4,5.3,8,1.8,16
	c0.5,1.4,1.3,4.3-0.4,7.6c-0.4,0.7-5.4,4.2-5.4,10.4c0,4.7,1.1,5.3,3.9,6.9c1.4,0.8,3,1.9,5.6,3.1c4.6,2.1,11,5,11.1,13.5L610.9,1.9
	z"/>
<path fill="#666766" d="M366.1,25.7v12.9c0,1.8-1.5,3.2-3.2,3.2v45c0,1.8-1.5,3.2-3.2,3.2h-77.2c-1.8,0-3.2-1.5-3.2-3.2v-45
	c-1.8,0-3.2-1.5-3.2-3.2V25.7c0-1.8,1.5-3.2,3.2-3.2h18.8c-6.7-3.7-9.2-8.7-9.2-13.2c0-5.5,3.9-9.3,9.5-9.3
	c12.6,0,16.6,18.5,22.7,22c6.1-3.5,10.1-22,22.7-22c5.6,0,9.5,3.8,9.5,9.3c0,4.5-2.5,9.5-9.2,13.2h18.8
	C364.6,22.5,366.1,24,366.1,25.7z M311.4,25.7h-32.2v12.9h32.2V25.7z M311.4,41.8h-29v45h29V41.8z M312.8,22.5h3.9
	c-5.7-6.3-9.3-19.3-18.3-19.3c-3.8,0-6.3,2.4-6.3,6.1C292.1,15.2,298.5,22.5,312.8,22.5z M327.5,25.7h-12.8v12.9h12.8V25.7z
	 M327.5,41.8h-12.8v45h12.8V41.8z M329.3,22.5c14.4,0,20.7-7.3,20.7-13.2c0-3.7-2.5-6.1-6.3-6.1c-9.1,0-12.6,13-18.3,19.3H329.3z
	 M362.8,25.7h-32.2v12.9h32.2V25.7z M359.6,41.8h-29v45h29V41.8z"/>
<path fill="#666766" d="M82.4,206.7c-0.9,0-1.6-0.7-1.6-1.6c0-0.1,0-0.2,0-0.4l6.4-28.9h0c0-0.3,0.2-0.5,0.4-0.7l0,0l57.9-57.8
	c0.3-0.3,0.7-0.5,1.1-0.5c0.5,0,0.9,0.2,1.1,0.5l22.5,22.5c0.3,0.3,0.5,0.7,0.5,1.1c0,0.5-0.2,0.9-0.5,1.1l-57.8,57.9
	c-0.2,0.2-0.5,0.3-0.8,0.4v0l-29,6.4v0C82.6,206.7,82.4,206.7,82.4,206.7z M109.6,187.4h-8c-0.9,0-1.6-0.7-1.6-1.6v-8H90L84.5,203
	l25.2-5.6V187.4z M154.8,152.9l-20.2-20.3l-41.9,41.9h9c0.9,0,1.6,0.7,1.6,1.6v8h8c0.9,0,1.6,0.7,1.6,1.6v9L154.8,152.9z
	 M166.9,140.8l-20.3-20.2l-9.8,9.8l20.2,20.2L166.9,140.8z"/>
<g>
	<path fill="#666766" d="M8.2,95C6.5,95,5,93.5,5,91.8V32.3c0-0.3,0.1-0.5,0.2-0.7L18,5.9h0C18.3,5.4,18.8,5,19.5,5h61.1
		c0.6,0,1.1,0.4,1.4,0.9h0l12.8,25.7c0.1,0.2,0.2,0.5,0.2,0.7v59.5c0,1.8-1.5,3.2-3.2,3.2H8.2z M91.8,33.9H64.5
		c-0.9,0-1.6-0.7-1.6-1.6c0-0.9,0.7-1.6,1.6-1.6h26.3L79.5,8.2H56.4l3.2,25.7v12.9c0,3.2-3.2,3.2-3.2,3.2H43.6
		c-3.2,0-3.2-3.2-3.2-3.2V33.9l3.2-25.7H20.5L9.2,30.7h26.3c0.9,0,1.6,0.7,1.6,1.6c0,0.9-0.7,1.6-1.6,1.6H8.2v57.9h83.6V33.9z
		 M46.8,74.1c0,0.9-0.7,1.6-1.6,1.6H16.2c-0.9,0-1.6-0.7-1.6-1.6c0-0.9,0.7-1.6,1.6-1.6h28.9C46,72.5,46.8,73.2,46.8,74.1z
		 M40.4,83.8c0,0.9-0.7,1.6-1.6,1.6H16.2c-0.9,0-1.6-0.7-1.6-1.6s0.7-1.6,1.6-1.6h22.5C39.6,82.1,40.4,82.9,40.4,83.8z M46.8,8.2
		l-3.2,25.7v12.9h12.8V33.9L53.2,8.2H46.8z M72.5,83.8c0-0.4,0.2-0.8,0.5-1.1l6.9-6.9h-2.5c-0.9,0-1.6-0.7-1.6-1.6
		c0-0.9,0.7-1.6,1.6-1.6h6.4c0.9,0,1.6,0.7,1.6,1.6v6.5c0,0.9-0.7,1.6-1.6,1.6s-1.6-0.7-1.6-1.6V78l-6.9,6.9
		c-0.3,0.3-0.7,0.4-1.1,0.4C73.2,85.3,72.5,84.6,72.5,83.8z"/>
</g>
</svg>
